ffmpeg version 4.2.7-0ubuntu0.1 Copyright (c) 2000-2022 the FFmpeg developers
  built with gcc 9 (Ubuntu 9.4.0-1ubuntu1~20.04.1)
  configuration: --prefix=/usr --extra-version=0ubuntu0.1 --toolchain=hardened --libdir=/usr/lib/x86_64-linux-gnu --incdir=/usr/include/x86_64-linux-gnu --arch=amd64 --enable-gpl --disable-stripping --enable-avresample --disable-filter=resample --enable-avisynth --enable-gnutls --enable-ladspa --enable-libaom --enable-libass --enable-libbluray --enable-libbs2b --enable-libcaca --enable-libcdio --enable-libcodec2 --enable-libflite --enable-libfontconfig --enable-libfreetype --enable-libfribidi --enable-libgme --enable-libgsm --enable-libjack --enable-libmp3lame --enable-libmysofa --enable-libopenjpeg --enable-libopenmpt --enable-libopus --enable-libpulse --enable-librsvg --enable-librubberband --enable-libshine --enable-libsnappy --enable-libsoxr --enable-libspeex --enable-libssh --enable-libtheora --enable-libtwolame --enable-libvidstab --enable-libvorbis --enable-libvpx --enable-libwavpack --enable-libwebp --enable-libx265 --enable-libxml2 --enable-libxvid --enable-libzmq --enable-libzvbi --enable-lv2 --enable-omx --enable-openal --enable-opencl --enable-opengl --enable-sdl2 --enable-libdc1394 --enable-libdrm --enable-libiec61883 --enable-nvenc --enable-chromaprint --enable-frei0r --enable-libx264 --enable-shared
  libavutil      56. 31.100 / 56. 31.100
  libavcodec     58. 54.100 / 58. 54.100
  libavformat    58. 29.100 / 58. 29.100
  libavdevice    58.  8.100 / 58.  8.100
  libavfilter     7. 57.100 /  7. 57.100
  libavresample   4.  0.  0 /  4.  0.  0
  libswscale      5.  5.100 /  5.  5.100
  libswresample   3.  5.100 /  3.  5.100
  libpostproc    55.  5.100 / 55.  5.100
Routing option strict to both codec and muxer layer
[h264 @ 0x563956f7a000] Reinit context to 640x352, pix_fmt: yuv420p
Input #0, mov,mp4,m4a,3gp,3g2,mj2, from '/var/www/html/project/media/video/original/VID-20221119-WA0023.mp4':
  Metadata:
    major_brand     : mp42
    minor_version   : 0
    compatible_brands: mp42isom
  Duration: 00:00:11.77, start: 0.000000, bitrate: 2206 kb/s
    Stream #0:0(und): Video: h264 (Constrained Baseline), 1 reference frame (avc1 / 0x31637661), yuv420p(left), 640x352, 2018 kb/s, 29.53 fps, 29.50 tbr, 90k tbn, 180k tbc (default)
    Metadata:
      rotate          : 90
    Side data:
      displaymatrix: rotation of -90.00 degrees
    Stream #0:1(und): Audio: aac (LC) (mp4a / 0x6134706D), 48000 Hz, stereo, fltp, 192 kb/s (default)
Input #1, png_pipe, from '/var/www/html/project/static/images/templates/logo_vertical.png':
  Duration: N/A, bitrate: N/A
    Stream #1:0: Video: png, 1 reference frame, rgba(pc), 1920x1080 [SAR 2835:2835 DAR 16:9], 25 tbr, 25 tbn, 25 tbc
[Parsed_scale_1 @ 0x56395707f0c0] w:1280 h:720 flags:'bilinear' interl:0
[Parsed_scale_4 @ 0x5639570517c0] w:-1 h:720 flags:'bilinear' interl:0
[Parsed_scale_6 @ 0x563956fdf580] w:1280 h:720 flags:'bilinear' interl:0
Stream mapping:
  Stream #0:0 (h264) -> split (graph 0)
  Stream #1:0 (png) -> scale (graph 0)
  overlay (graph 0) -> Stream #0:0 (libx264)
  Stream #0:1 -> #0:1 (aac (native) -> aac (native))
Press [q] to stop, [?] for help
[h264 @ 0x563956fe28c0] Reinit context to 640x352, pix_fmt: yuv420p
[graph_1_in_0_1 @ 0x563957044440] tb:1/48000 samplefmt:fltp samplerate:48000 chlayout:0x3
[Parsed_scale_1 @ 0x563957573480] w:1280 h:720 flags:'bilinear' interl:0
[Parsed_scale_4 @ 0x563957576800] w:-1 h:720 flags:'bilinear' interl:0
[Parsed_scale_6 @ 0x563957578180] w:1280 h:720 flags:'bilinear' interl:0
[graph 0 input from stream 0:0 @ 0x56395757b580] w:640 h:352 pixfmt:yuv420p tb:1/90000 fr:59/2 sar:0/1 sws_param:flags=2
[graph 0 input from stream 1:0 @ 0x56395757ce00] w:1920 h:1080 pixfmt:rgba tb:1/25 fr:25/1 sar:2835/2835 sws_param:flags=2
[transpose @ 0x56395757c2c0] w:640 h:352 dir:1 -> w:352 h:640 rotation:clockwise vflip:0
[Parsed_scale_1 @ 0x563957573480] w:352 h:640 fmt:yuv420p sar:0/1 -> w:1280 h:720 fmt:yuv420p sar:0/1 flags:0x2
[Parsed_boxblur_2 @ 0x5639575741c0] luma_radius:36 luma_power:1 chroma_radius:18 chroma_power:1 alpha_radius:36 alpha_power:1 w:1280 chroma_w:640 h:720 chroma_h:360
[Parsed_setsar_3 @ 0x563957575a00] w:1280 h:720 sar:0/1 dar:16/9 -> sar:1/1 dar:16/9
[Parsed_scale_4 @ 0x563957576800] w:352 h:640 fmt:yuv420p sar:0/1 -> w:396 h:720 fmt:yuva420p sar:0/1 flags:0x2
[Parsed_setsar_5 @ 0x5639575773c0] w:396 h:720 sar:0/1 dar:11/20 -> sar:1/1 dar:11/20
[Parsed_overlay_8 @ 0x563957579840] main w:1280 h:720 fmt:yuv420p overlay w:396 h:720 fmt:yuva420p
[Parsed_overlay_8 @ 0x563957579840] [framesync @ 0x563957579968] Selected 1/90000 time base
[Parsed_overlay_8 @ 0x563957579840] [framesync @ 0x563957579968] Sync level 2
[Parsed_scale_6 @ 0x563957578180] w:1920 h:1080 fmt:rgba sar:2835/2835 -> w:1280 h:720 fmt:yuva420p sar:1/1 flags:0x2
[Parsed_setsar_7 @ 0x563957578c40] w:1280 h:720 sar:1/1 dar:16/9 -> sar:1/1 dar:16/9
[Parsed_overlay_9 @ 0x56395757a780] main w:1280 h:720 fmt:yuv420p overlay w:1280 h:720 fmt:yuva420p
[Parsed_overlay_9 @ 0x56395757a780] [framesync @ 0x56395757a8a8] Selected 1/90000 time base
[Parsed_overlay_9 @ 0x56395757a780] [framesync @ 0x56395757a8a8] Sync level 2
[libx264 @ 0x563956fd1800] using SAR=1/1
[libx264 @ 0x563956fd1800] using cpu capabilities: MMX2 SSE2Fast SSSE3 SSE4.2 AVX FMA3 BMI2 AVX2
[libx264 @ 0x563956fd1800] profile High, level 3.1
[libx264 @ 0x563956fd1800] 264 - core 155 r2917 0a84d98 - H.264/MPEG-4 AVC codec - Copyleft 2003-2018 - http://www.videolan.org/x264.html - options: cabac=1 ref=1 deblock=1:0:0 analyse=0x3:0x113 me=hex subme=2 psy=1 psy_rd=1.00:0.00 mixed_ref=0 me_range=16 chroma_me=1 trellis=0 8x8dct=1 cqm=0 deadzone=21,11 fast_pskip=1 chroma_qp_offset=0 threads=22 lookahead_threads=5 sliced_threads=0 nr=0 decimate=1 interlaced=0 bluray_compat=0 constrained_intra=0 bframes=3 b_pyramid=2 b_adapt=1 b_bias=0 direct=1 weightb=1 open_gop=0 weightp=1 keyint=250 keyint_min=25 scenecut=40 intra_refresh=0 rc_lookahead=10 rc=crf mbtree=1 crf=18.0 qcomp=0.60 qpmin=0 qpmax=69 qpstep=4 ip_ratio=1.40 aq=1:1.00
Output #0, mp4, to '/var/www/html/project/media/video/watermarks/VID-20221119-WA0023.mp4':
  Metadata:
    major_brand     : mp42
    minor_version   : 0
    compatible_brands: mp42isom
    encoder         : Lavf58.29.100
    Stream #0:0: Video: h264 (libx264), 1 reference frame (avc1 / 0x31637661), yuv420p, 1280x720 [SAR 1:1 DAR 16:9], q=-1--1, 29.50 fps, 15104 tbn, 29.50 tbc (default)
    Metadata:
      encoder         : Lavc58.54.100 libx264
    Side data:
      cpb: bitrate max/min/avg: 0/0/0 buffer size: 0 vbv_delay: -1
    Stream #0:1(und): Audio: aac (LC) (mp4a / 0x6134706D), 48000 Hz, stereo, fltp, delay 1024, 128 kb/s (default)
    Metadata:
      encoder         : Lavc58.54.100 aac
[Parsed_overlay_8 @ 0x563957579840] [framesync @ 0x563957579968] Sync level 1
[Parsed_overlay_8 @ 0x563957579840] [framesync @ 0x563957579968] Sync level 0
[Parsed_overlay_9 @ 0x56395757a780] [framesync @ 0x56395757a8a8] Sync level 0
No more output streams to write to, finishing.
frame=  346 fps= 68 q=-1.0 Lsize=    1995kB time=00:00:11.76 bitrate=1388.5kbits/s speed= 2.3x    
[AVIOContext @ 0x563956f78280] Statistics: 0 seeks, 11 writeouts
video:1800kB audio:181kB subtitle:0kB other streams:0kB global headers:0kB muxing overhead: 0.685438%
Input file #0 (/var/www/html/project/media/video/original/VID-20221119-WA0023.mp4):
  Input stream #0:0 (video): 346 packets read (2956434 bytes); 346 frames decoded; 
  Input stream #0:1 (audio): 551 packets read (283008 bytes); 551 frames decoded (564224 samples); 
  Total: 897 packets (3239442 bytes) demuxed
Input file #1 (/var/www/html/project/static/images/templates/logo_vertical.png):
  Input stream #1:0 (video): 1 packets read (93903 bytes); 1 frames decoded; 
  Total: 1 packets (93903 bytes) demuxed
Output file #0 (/var/www/html/project/media/video/watermarks/VID-20221119-WA0023.mp4):
  Output stream #0:0 (video): 346 frames encoded; 346 packets muxed (1842947 bytes); 
  Output stream #0:1 (audio): 551 frames encoded (564224 samples); 552 packets muxed (185538 bytes); 
  Total: 898 packets (2028485 bytes) muxed
[AVIOContext @ 0x563957052400] Statistics: 2 seeks, 11 writeouts
[libx264 @ 0x563956fd1800] frame I:2     Avg QP:13.43  size: 57079
[libx264 @ 0x563956fd1800] frame P:87    Avg QP:15.75  size: 13675
[libx264 @ 0x563956fd1800] frame B:257   Avg QP:17.89  size:  2095
[libx264 @ 0x563956fd1800] consecutive B-frames:  0.6%  0.6%  1.7% 97.1%
[libx264 @ 0x563956fd1800] mb I  I16..4: 43.8% 30.8% 25.4%
[libx264 @ 0x563956fd1800] mb P  I16..4: 12.1%  4.9%  0.4%  P16..4: 26.1%  9.4%  4.2%  0.0%  0.0%    skip:42.9%
[libx264 @ 0x563956fd1800] mb B  I16..4:  1.4%  0.4%  0.0%  B16..8:  9.9%  2.9%  0.1%  direct: 5.3%  skip:79.9%  L0:40.6% L1:47.6% BI:11.8%
[libx264 @ 0x563956fd1800] 8x8 transform intra:27.2% inter:23.7%
[libx264 @ 0x563956fd1800] coded y,uvDC,uvAC intra: 18.4% 25.2% 5.6% inter: 4.7% 8.8% 0.1%
[libx264 @ 0x563956fd1800] i16 v,h,dc,p: 46% 31%  9% 14%
[libx264 @ 0x563956fd1800] i8 v,h,dc,ddl,ddr,vr,hd,vl,hu: 11% 52% 20%  2%  3%  2%  6%  2%  3%
[libx264 @ 0x563956fd1800] i4 v,h,dc,ddl,ddr,vr,hd,vl,hu: 24% 24% 17%  4%  7%  6%  8%  5%  6%
[libx264 @ 0x563956fd1800] i8c dc,h,v,p: 65% 21%  7%  7%
[libx264 @ 0x563956fd1800] Weighted P-Frames: Y:21.8% UV:9.2%
[libx264 @ 0x563956fd1800] kb/s:1256.57
[aac @ 0x563956fe1080] Qavg: 2291.658
[AVIOContext @ 0x563956f81240] Statistics: 3245027 bytes read, 0 seeks
[AVIOContext @ 0x56395707ff40] Statistics: 93903 bytes read, 0 seeks
